<svg width="87" height="24" viewBox="0 0 87 24" fill="none" xmlns="http://www.w3.org/2000/svg">
<path d="M4.44697 23.4351H0.631566C0.543855 23.4351 0.5 23.3803 0.5 23.2707L0.565783 0.131566C0.565783 0.0438552 0.609638 0 0.697348 0H21.5395C22.7565 0 23.8748 0.296022 24.8944 0.888067C25.9141 1.48011 26.7254 2.27499 27.3284 3.27269C27.9424 4.2704 28.2494 5.39967 28.2494 6.6605C28.2494 7.48279 28.1233 8.22833 27.8711 8.89712C27.6189 9.56591 27.3229 10.1305 26.983 10.591C26.6541 11.0515 26.3526 11.3914 26.0785 11.6107C27.2955 12.9592 27.904 14.5435 27.904 16.3635L27.9369 23.2707C27.9369 23.3803 27.8821 23.4351 27.7724 23.4351H23.957C23.8693 23.4351 23.8255 23.4022 23.8255 23.3364V16.3635C23.8255 15.5521 23.5404 14.8505 22.9703 14.2584C22.4002 13.6664 21.6985 13.3703 20.8652 13.3703H4.61142L4.57853 23.2707C4.57853 23.3803 4.53468 23.4351 4.44697 23.4351ZM21.5395 4.02919H4.61142V9.32471H21.5395C22.2302 9.32471 22.8442 9.06706 23.3814 8.55176C23.9296 8.03646 24.2037 7.40604 24.2037 6.6605C24.2037 5.94786 23.9406 5.33389 23.4143 4.81859C22.8881 4.29233 22.2631 4.02919 21.5395 4.02919Z" fill="white"/>
<path d="M29.6472 23.2707L33.8245 0.131566C33.8464 0.0438552 33.9012 0 33.9889 0H38.8733C38.961 0 39.0158 0.0438552 39.0377 0.131566L43.0505 23.2707C43.0614 23.3803 43.0176 23.4351 42.9189 23.4351H39.1857C39.0761 23.4351 39.0158 23.3803 39.0048 23.2707L38.643 20.8038H34.0547L33.6929 23.2707C33.6819 23.3803 33.6271 23.4351 33.5284 23.4351H29.7788C29.6911 23.4351 29.6472 23.3803 29.6472 23.2707ZM36.242 7.74592L34.729 17.2022H37.9688L36.5873 7.74592L36.39 6.49605L36.242 7.74592Z" fill="white"/>
<path d="M52.3423 23.4351H48.5433C48.4447 23.4351 48.3953 23.3803 48.3953 23.2707V4.06209H44.0208C43.9111 4.06209 43.8563 4.00727 43.8563 3.89763L43.8892 0.131566C43.8892 0.0438552 43.9331 0 44.0208 0H56.8155C56.9361 0 56.9964 0.0438552 56.9964 0.131566V3.89763C56.9964 4.00727 56.9526 4.06209 56.8649 4.06209H52.441L52.4739 23.2707C52.4739 23.3803 52.43 23.4351 52.3423 23.4351Z" fill="white"/>
<path d="M69.6596 23.4351H58.7726C58.6849 23.4351 58.641 23.3803 58.641 23.2707L58.6739 0.131566C58.6739 0.0438552 58.7177 0 58.8055 0H69.6267C69.7144 0 69.7583 0.054819 69.7583 0.164457V3.93052C69.7583 4.01823 69.7144 4.06209 69.6267 4.06209H62.7195V9.32471H69.6267C69.7144 9.32471 69.7583 9.36856 69.7583 9.45627L69.7912 13.2717C69.7912 13.3594 69.7473 13.4032 69.6596 13.4032H62.7195V19.2908H69.6596C69.7473 19.2908 69.7912 19.3456 69.7912 19.4552V23.3035C69.7912 23.3913 69.7473 23.4351 69.6596 23.4351Z" fill="white"/>
<path d="M76.7313 23.4351H72.9159C72.8281 23.4351 72.7843 23.3803 72.7843 23.2707L72.8501 0.131566C72.8501 0.0438552 72.8939 0 72.9816 0H79.7902C81.0071 0 82.1254 0.296022 83.1451 0.888067C84.1647 1.48011 84.976 2.27499 85.579 3.27269C86.193 4.2704 86.5 5.39967 86.5 6.6605C86.5 7.48279 86.3739 8.22833 86.1217 8.89712C85.8696 9.56591 85.5736 10.1305 85.2337 10.591C84.9048 11.0515 84.6033 11.3914 84.3292 11.6107C85.5462 12.9592 86.1546 14.5435 86.1546 16.3635L86.1875 23.2707C86.1875 23.3803 86.1327 23.4351 86.0231 23.4351H82.2077C82.12 23.4351 82.0761 23.4022 82.0761 23.3364V16.3635C82.0761 15.5521 81.791 14.8505 81.2209 14.2584C80.6508 13.6664 79.9491 13.3703 79.1159 13.3703H76.8957L76.8628 23.2707C76.8628 23.3803 76.819 23.4351 76.7313 23.4351ZM79.7902 4.02919H76.8957V9.32471H79.7902C80.4809 9.32471 81.0948 9.06706 81.6321 8.55176C82.1803 8.03646 82.4544 7.40604 82.4544 6.6605C82.4544 5.94786 82.1912 5.33389 81.665 4.81859C81.1387 4.29233 80.5138 4.02919 79.7902 4.02919Z" fill="white"/>
</svg>
